<?xml version="1.0" encoding="UTF-8"?>
<svg id="Ebene_1" data-name="Ebene 1" xmlns="http://www.w3.org/2000/svg" viewBox="0 0 1644.71 709.41">
  <defs>
    <style>
      .cls-1 {
        font-family: CenturyGothic, 'Century Gothic';
        font-size: 23.99px;
      }

      .cls-2 {
        fill: none;
        stroke: #000;
        stroke-linecap: round;
        stroke-linejoin: round;
        stroke-width: .71px;
      }
    </style>
  </defs>
  <path class="cls-2" d="M932.65,85.35l.5-3.8,1.5-3.5,2.5-3,3.1-2.2,3.6-1.3,3.9-.3,3.8.8,3.4,1.8,2.8,2.6,2,3.3,1.1,3.7v3.9l-1.1,3.7-2,3.3-2.8,2.6-3.4,1.8-3.8.8-3.9-.3-3.6-1.3-3.1-2.2-2.5-3-1.5-3.5-.5-3.9M1017.65,85.35l.5-3.8,1.6-3.5,2.4-3,3.2-2.2,3.6-1.3,3.8-.3,3.8.8,3.4,1.8,2.9,2.6,2,3.3,1,3.7v3.9l-1,3.7-2,3.3-2.9,2.6-3.4,1.8-3.8.8-3.8-.3-3.6-1.3-3.2-2.2-2.4-3-1.6-3.5-.5-3.9M946.75.35l-9.5.5-9.4,1.6-9.2,2.7-8.8,3.6-8.3,4.6-7.8,5.6-7.1,6.3-6.4,7.1-5.5,7.8-4.6,8.3-3.6,8.9-2.7,9.1-1.6,9.4-.5,9.5M861.75,85.35l.5,9.6,1.6,9.4,2.7,9.1,3.6,8.8,4.6,8.4,5.5,7.8,6.4,7.1,7.1,6.3,7.8,5.5,8.3,4.7,8.8,3.6,9.2,2.6,9.4,1.6,9.5.6M1205.35,170.45h-258.6M1205.35,170.45l6.7-.5,6.5-1.6,6.1-2.6,5.7-3.4,5.1-4.4,4.3-5,3.5-5.7,2.6-6.2,1.5-6.5.6-6.6M1247.95,42.85v85.1M1247.95,42.85l-.6-6.6-1.5-6.5-2.6-6.2-3.5-5.7-4.3-5-5.1-4.4-5.7-3.5-6.1-2.5-6.5-1.6-6.7-.5M1188.35.35h17M1188.35,85.35V.35M1188.35,85.35h-51M1137.35,85.35V.35M946.75.35h190.6M1258.25,85.35l.5-9.5,1.6-9.4,2.6-9.1,3.7-8.9,4.6-8.3,5.5-7.8,6.4-7.1,7.1-6.3,7.8-5.6,8.3-4.6,8.8-3.6,9.2-2.7,9.4-1.6,9.5-.5M1329.05,85.35l.6-3.8,1.5-3.5,2.4-3,3.2-2.2,3.6-1.3,3.9-.3,3.7.8,3.5,1.8,2.8,2.6,2,3.3,1,3.7v3.9l-1,3.7-2,3.3-2.8,2.6-3.5,1.8-3.7.8-3.9-.3-3.6-1.3-3.2-2.2-2.4-3-1.5-3.5-.6-3.9M1414.15,85.35l.5-3.8,1.5-3.5,2.5-3,3.1-2.2,3.7-1.3,3.8-.3,3.8.8,3.4,1.8,2.8,2.6,2,3.3,1.1,3.7v3.9l-1.1,3.7-2,3.3-2.8,2.6-3.4,1.8-3.8.8-3.8-.3-3.7-1.3-3.1-2.2-2.5-3-1.5-3.5-.5-3.9M1601.85,170.45h-258.6M1644.35,127.95l-.5,6.6-1.5,6.5-2.6,6.2-3.5,5.7-4.3,5-5.1,4.4-5.7,3.5-6.1,2.5-6.5,1.6-6.7.5M1644.35,42.85v85.1M1601.85.35l6.7.5,6.5,1.6,6.1,2.5,5.7,3.5,5.1,4.4,4.3,5,3.5,5.7,2.6,6.2,1.5,6.5.5,6.6M1584.85.35h17M1584.85,85.35V.35M1533.85,85.35h51M1533.85.35v85M1343.25.35h190.6M1343.25,170.45l-9.5-.5-9.4-1.6-9.2-2.7-8.8-3.6-8.3-4.6-7.8-5.6-7.1-6.3-6.4-7.1-5.5-7.8-4.6-8.4-3.7-8.8-2.6-9.1-1.6-9.4-.5-9.6M1049.15,709.05h-181.2M1049.15,709.05V227.15M1049.15,227.15h-181.2M867.95,227.15v481.9M1002.55,468.05l-.5-6.3-1.5-6.2-2.5-5.9-3.4-5.4-4.3-4.8-4.9-4-5.5-3.2-6-2.3-6.3-1.3-6.4-.2-6.3.7-6.1,1.8-5.8,2.8-5.3,3.6-4.6,4.4-3.8,5.1-3,5.7-2,6-1,6.3v6.4l1,6.3,2,6.1,3,5.6,3.8,5.1,4.6,4.5,5.3,3.6,5.8,2.7,6.1,1.8,6.3.8,6.4-.3,6.3-1.3,6-2.2,5.5-3.2,4.9-4.1,4.3-4.7,3.4-5.4,2.5-5.9,1.5-6.2.5-6.4M1247.55,227.15h-181.2M1247.55,709.05h-181.2M1115.95,468.05l.5-6.7,1.5-6.6,2.5-6.4,3.4-5.8,4.2-5.3,5-4.6,5.6-3.9,6.1-2.9,6.5-2,6.7-1h6.8l6.7,1,6.4,2,6.1,2.9,5.6,3.9,5,4.6,4.2,5.3,3.4,5.8,2.5,6.4,1.5,6.6.5,6.7-.5,6.8-1.5,6.6-2.5,6.3-3.4,5.9-4.2,5.3-5,4.6-5.6,3.8-6.1,2.9-6.4,2-6.7,1.1h-6.8l-6.7-1.1-6.5-2-6.1-2.9-5.6-3.8-5-4.6-4.2-5.3-3.4-5.9-2.5-6.3-1.5-6.6-.5-6.8M1247.55,709.05V227.15M1066.35,227.15v481.9M1264.75,227.15v481.9M1445.95,709.05h-181.2M1311.55,468.05l.5-7,1.5-6.9,2.6-6.5,3.4-6.2,4.3-5.5,5.1-4.9,5.7-4.1,6.2-3.2,6.7-2.3,6.9-1.3,7-.2,7,.7,6.8,1.8,6.5,2.8,6,3.6,5.4,4.5,4.7,5.3,3.9,5.8,3,6.4,2,6.7,1,7v7l-1,7-2,6.7-3,6.4-3.9,5.9-4.7,5.2-5.4,4.5-6,3.7-6.5,2.7-6.8,1.8-7,.8-7-.3-6.9-1.3-6.7-2.2-6.2-3.2-5.7-4.1-5.1-4.9-4.3-5.6-3.4-6.1-2.6-6.6-1.5-6.9-.5-7M1445.95,709.05V227.15M1445.95,227.15h-181.2M1463.25,227.15v481.9M1644.35,709.05h-181.1M1501.45,468.05l.5-7.5,1.5-7.5,2.5-7.1,3.4-6.8,4.3-6.2,5.1-5.6,5.8-4.9,6.4-4.1,6.8-3.2,7.3-2.2,7.4-1.3,7.6-.2,7.5.7,7.4,1.8,7.1,2.7,6.6,3.6,6.1,4.5,5.5,5.3,4.7,5.9,3.8,6.6,3,6.9,2,7.3,1,7.5v7.6l-1,7.5-2,7.3-3,7-3.8,6.5-4.7,6-5.5,5.2-6.1,4.5-6.6,3.6-7.1,2.8-7.4,1.7-7.5.8-7.6-.3-7.4-1.2-7.3-2.3-6.8-3.2-6.4-4-5.8-4.9-5.1-5.6-4.3-6.3-3.4-6.7-2.5-7.2-1.5-7.4-.5-7.6M1644.35,709.05V227.15M1644.35,227.15h-181.1M595.65,605.55l1.6.3,1.4,1,.9,1.3.3,1.7-.3,1.6-.9,1.4-1.4.9-1.6.3M595.65,95.35l1.6.3,1.4.9.9,1.4.3,1.6M599.85,99.55l-.3,1.7-.9,1.3-1.4,1-1.6.3M227.15,95.35l1.6.3,1.4.9.9,1.4.3,1.6M231.35,99.55l-.3,1.7-.9,1.3-1.4,1-1.6.3M227.15,605.55l1.6.3,1.4,1,.9,1.3.3,1.7-.3,1.6-.9,1.4-1.4.9-1.6.3M.35,85.45l.5-9.6,1.6-9.4,2.7-9.1,3.6-8.8,4.6-8.4,5.5-7.8,6.4-7.1,7.1-6.3,7.8-5.6,8.3-4.6,8.8-3.6,9.2-2.7,9.4-1.6,9.5-.5M85.35.35h0M85.35,709.05l-9.5-.6-9.4-1.6-9.2-2.6-8.8-3.6-8.3-4.7-7.8-5.5-7.1-6.3-6.4-7.1-5.5-7.8-4.6-8.4-3.6-8.8-2.7-9.1-1.6-9.4-.5-9.6M85.35,709.05h0M85.35,709.05h652M737.35,709.05l9.5-.6,9.4-1.6,9.2-2.6,8.8-3.6,8.3-4.7,7.8-5.5,7.1-6.3,6.4-7.1,5.5-7.8,4.6-8.4,3.7-8.8,2.6-9.1,1.6-9.4.5-9.6M822.35,623.95V85.45M822.35,85.45l-.5-9.6-1.6-9.4-2.6-9.1-3.7-8.8-4.6-8.4-5.5-7.8-6.4-7.1-7.1-6.3-7.8-5.6-8.3-4.6-8.8-3.6-9.2-2.7-9.4-1.6-9.5-.5M737.35.35H85.35M85.35.35l-9.5.5-9.4,1.6-9.2,2.7-8.8,3.6-8.3,4.6-7.8,5.6-7.1,6.3-6.4,7.1-5.5,7.8-4.6,8.4-3.6,8.8-2.7,9.1-1.6,9.4-.5,9.6M.35,623.95l.5,9.6,1.6,9.4,2.7,9.1,3.6,8.8,4.6,8.4,5.5,7.8,6.4,7.1,7.1,6.3,7.8,5.5,8.3,4.7,8.8,3.6,9.2,2.6,9.4,1.6,9.5.6M599.85,609.85l-.3,1.6-.9,1.4-1.4.9-1.6.3-1.7-.3-1.3-.9-1-1.4-.3-1.6.3-1.7,1-1.3,1.3-1,1.7-.3,1.6.3,1.4,1,.9,1.3.3,1.7M231.35,99.55l-.3,1.7-.9,1.3-1.4,1-1.6.3-1.7-.3-1.4-1-.9-1.3-.3-1.7.3-1.6.9-1.4,1.4-.9,1.7-.3,1.6.3,1.4.9.9,1.4.3,1.6M599.85,99.55l-.3,1.7-.9,1.3-1.4,1-1.6.3-1.7-.3-1.3-1-1-1.3-.3-1.7.3-1.6,1-1.4,1.3-.9,1.7-.3,1.6.3,1.4.9.9,1.4.3,1.6M231.35,609.85l-.3,1.6-.9,1.4-1.4.9-1.6.3-1.7-.3-1.4-.9-.9-1.4-.3-1.6.3-1.7.9-1.3,1.4-1,1.7-.3,1.6.3,1.4,1,.9,1.3.3,1.7M.35,85.45v538.5M.35,623.95H.35M.35,85.45v538.5M.35,85.45H.35"/>
  <text class="cls-1" transform="translate(871.73 205.73)"><tspan x="0" y="0" xml:space="preserve">Außenmaße, Höhe 250 mm/ Breite 580 mm   Materialstärke 10 mm</tspan></text>
</svg>