<?xml version="1.0" encoding="UTF-8"?>
<svg id="Ebene_1" data-name="Ebene 1" xmlns="http://www.w3.org/2000/svg" viewBox="0 0 2325.11 1134.61">
  <defs>
    <style>
      .cls-1 {
        font-size: 36px;
      }

      .cls-1, .cls-2, .cls-3 {
        font-family: CenturyGothic, 'Century Gothic';
      }

      .cls-2 {
        font-size: 36px;
      }

      .cls-3 {
        font-size: 35.99px;
      }

      .cls-4 {
        fill: none;
        stroke: #000;
        stroke-linecap: round;
        stroke-linejoin: round;
        stroke-width: .71px;
      }
    </style>
  </defs>
  <path class="cls-4" d="M883.65,1091.75l.5,6.6,1.5,6.5,2.6,6.2,3.5,5.7,4.3,5,5.1,4.4,5.7,3.5,6.1,2.5,6.5,1.6,6.7.5M1493.05,1134.25l6.7-.5,6.5-1.6,6.1-2.5,5.7-3.5,5.1-4.4,4.3-5,3.5-5.7,2.6-6.2,1.5-6.5.5-6.6M926.15,1134.25h566.9M1535.55,1091.75v-182.9M1535.55,908.85h-102M1433.55,908.85v55.3M1433.55,964.15h-447.9M985.65,908.85v55.3M883.65,908.85h102M883.65,908.85v182.9M1533.75,786.85v58M1434.55,786.85v58M1434.55,786.85h99.2M1434.55,844.85h99.2M981.05,786.85v58M881.75,786.85v58M981.05,844.85h-99.3M981.05,786.85h-99.3M630.75,1083.25v-272.2M630.75,697.65H188.55M735.65,754.35h-104.9M735.65,782.75v-28.4M707.25,811.05l5.6-.5,5.3-1.6,4.9-2.6,4.3-3.6,3.5-4.3,2.6-4.9,1.7-5.3.5-5.5M83.65,1134.25h652M735.65,1083.25h-104.9M735.65,1083.25v51M630.75,811.05h76.5M188.55,1083.25v-272.2M83.65,782.75v-28.4M83.65,754.35h104.9M188.55,811.05h-76.5M112.05,811.05l-5.6-.5-5.3-1.6-4.9-2.6-4.3-3.6-3.5-4.3-2.6-4.9-1.6-5.3-.6-5.5M83.65,1083.25h104.9M83.65,1083.25v51M188.55,754.35v-56.7M630.75,754.35v-56.7M.35,35.05v595.3M119.35,190.95h175.8M119.35,190.95v-31.2M119.35,159.75h175.8M295.15,190.95v-31.2M751.55,105.95h-405.4M346.15,105.95v-53.9M751.55,52.05h-405.4M751.55,6.65v45.4M751.55,6.65H28.75M28.75,6.65l-5.6.6-5.3,1.6-4.9,2.6-4.3,3.5-3.5,4.3-2.6,4.9-1.6,5.4-.6,5.5M28.75,658.65l-5.6-.5-5.3-1.7-4.9-2.6-4.3-3.5-3.5-4.3-2.6-4.9-1.6-5.3-.6-5.5M751.55,658.65H28.75M751.55,658.65v-45.3M751.55,613.35h-405.4M346.15,559.45v53.9M751.55,559.45h-405.4M751.55,105.95v453.5M119.35,505.55h175.8M119.35,474.45v31.1M119.35,474.45h175.8M295.15,474.45v31.1M1226.05,653.45l-72.8-1.8-72.7-4.4-57.2-5.3-57.1-6.8M1226.05,540.15v113.3M1226.05,540.15h-56.7M1169.35,486.25v53.9M1281.35,486.25h-112M1281.35,711.65v-225.4M1281.35,711.65h179M1597.05,119.15l-136.7,592.5M1597.05,119.15h-346.9M1250.15,62.75v56.4M1250.15,62.75h360M1624.45.35l-14.3,62.4M837.75.35h786.7M781.05,57.05l.6-8,1.7-7.9,2.8-7.6,3.9-7.1,4.8-6.5,5.8-5.7,6.4-4.9,7.1-3.8,7.6-2.9,7.9-1.7,8.1-.6M781.05,568.05V57.05M815.05,609.75l-7-2.1-6.5-3.2-5.9-4.3-5-5.2-4.1-6-3-6.6-1.9-7.1-.6-7.2M880.65,622.15l-36.7-6.7-28.9-5.7M897.25,608.15l-.3,3.1-1,2.9-1.6,2.6-2.1,2.2-2.6,1.8-2.9,1.1-3,.5-3.1-.2M897.25,608.15v-68M897.25,540.15h-53.9M843.35,368.85v171.3M843.35,368.85h56.7M900.05,368.85v117.4M953.95,486.25h-53.9M953.95,621.15v-134.9M966.25,635.15l-2.5-.5-2.3-1-2.1-1.4-1.9-1.8-1.5-2-1.1-2.3-.7-2.5-.2-2.5M900.05,170.35v144.6M843.35,314.95h56.7M843.35,170.35v144.6M843.35,170.35h56.7M1481.35,711.65l14.4-62.4M2268.05,711.65l8.1-.6,7.9-1.7,7.6-2.9,7.1-3.8,6.5-4.9,5.7-5.7,4.8-6.5,3.9-7.1,2.8-7.6,1.8-7.9.5-8M2268.05,711.65h-786.7M1824.45.35h-179M1508.75,592.85L1645.45.35M1855.65,592.85h-346.9M1855.65,592.85v56.4M1855.65,649.25h-359.9M2324.75,143.95v511M2324.75,143.95l-.6-7.2-1.8-7.1-3-6.6-4.1-6-5.1-5.2-5.9-4.3-6.5-3.2-7-2.1M2290.75,102.25l-36.7-7.2-28.9-5.2M2225.15,89.85l-3.1-.2-3,.5-2.9,1.1-2.5,1.8-2.2,2.2-1.6,2.6-.9,2.9-.4,3.1M2208.55,103.85v68M2262.45,171.85h-53.9M2262.45,343.15v-171.3M2205.75,343.15h56.7M2205.75,225.75v117.4M2151.85,225.75h53.9M2151.85,90.85v134.9M2151.85,90.85l-.2-2.5-.7-2.5-1.1-2.3-1.5-2-1.8-1.8-2.2-1.4-2.3-1-2.5-.5M2139.55,76.85l-72.7-8.4-72.7-5.9-57.2-2.8-57.2-1.2M1879.75,171.85V58.55M1936.45,171.85h-56.7M1936.45,171.85v53.9M1824.45,225.75h112M1824.45,225.75V.35M2205.75,541.65h56.7M2205.75,397.05v144.6M2262.45,397.05h-56.7M2262.45,541.65v-144.6M2220.25,812.15v-53.8M1993.55,928.95l3.8.5,3.5,1.6,3,2.4,2.2,3.2,1.3,3.6.3,3.9-.8,3.7-1.8,3.5-2.6,2.8-3.3,2-3.7,1h-3.9l-3.7-1-3.3-2-2.6-2.8-1.8-3.5-.8-3.7.3-3.9,1.3-3.6,2.2-3.2,3-2.4,3.5-1.6,3.9-.5M2220.25,758.35h-453.5M1766.75,812.15v-53.8M1712.85,812.15h53.9M1712.85,812.15v-51M1667.55,761.15h45.3M1667.55,897.25v-136.1M1766.75,897.25h-99.2M1766.75,1010.65v-113.4M1712.85,1010.65h53.9M1712.85,1010.65v-51.1M1712.85,959.55h-45.3M1667.55,1127.95v-168.4M1667.55,1127.95h651.9M2319.45,1127.95v-168.4M2274.15,959.55h45.3M2274.15,1010.65v-51.1M2274.15,1010.65h-53.9M2220.25,1010.65v-113.4M2220.25,897.25h99.2M2319.45,897.25v-136.1M2319.45,761.15h-45.3M2274.15,812.15v-51M2274.15,812.15h-53.9"/>
  <text class="cls-1" transform="translate(1026.73 768.5)"><tspan x="0" y="0">Außenmaße: </tspan></text>
  <text class="cls-2" transform="translate(1026.76 812.1)"><tspan x="0" y="0">820mm Breite/</tspan></text>
  <text class="cls-3" transform="translate(1026.76 853.61) scale(.98 1)"><tspan x="0" y="0">400 mm Höhe</tspan><tspan x="0" y="43.17">Materialstärke 18 mm</tspan></text>
</svg>